<?xml version="1.0" standalone="no"?>
<!DOCTYPE svg PUBLIC "-//W3C//DTD SVG 20010904//EN"
 "http://www.w3.org/TR/2001/REC-SVG-20010904/DTD/svg10.dtd">
<svg version="1.0" xmlns="http://www.w3.org/2000/svg"
 width="1024.000000pt" height="1024.000000pt" viewBox="0 0 1024.000000 1024.000000"
 preserveAspectRatio="xMidYMid meet">
<metadata>
Created by potrace 1.14, written by Peter Selinger 2001-2017
</metadata>
<g transform="translate(0.000000,1024.000000) scale(0.100000,-0.100000)"
fill="#000000" stroke="none">
<path d="M3370 9279 c-297 -77 -496 -240 -603 -495 -66 -156 -77 -232 -81
-544 -4 -233 -6 -265 -20 -268 -20 -4 -21 -22 -1 -22 13 0 15 -20 15 -121 0
-117 0 -120 -22 -117 -31 4 -34 -20 -4 -33 24 -11 25 -15 28 -123 4 -134 0
-176 -13 -155 -7 11 -9 9 -9 -8 0 -13 5 -23 10 -23 6 0 10 -138 10 -395 l0
-395 -36 0 c-24 0 -34 -4 -32 -12 6 -18 49 -22 59 -6 5 7 9 -34 9 -99 0 -94
-3 -113 -15 -113 -8 0 -15 -7 -15 -15 0 -8 5 -15 11 -15 5 0 7 5 4 10 -3 6 -2
10 4 10 6 0 10 -117 11 -335 l0 -335 -26 6 c-22 6 -25 4 -22 -12 2 -11 13 -20
24 -22 22 -3 22 -6 28 -365 4 -199 6 -1080 4 -1957 l-2 -1595 26 -105 c79
-313 200 -486 430 -610 87 -47 222 -95 296 -105 29 -4 50 -10 47 -14 -2 -5 8
-14 23 -22 15 -8 31 -20 35 -26 4 -7 17 -13 27 -13 11 0 20 -5 20 -11 0 -6 7
-9 14 -6 10 4 13 1 10 -8 -4 -10 0 -12 15 -8 13 3 23 0 27 -10 3 -9 12 -13 20
-10 9 3 14 -2 14 -13 0 -16 2 -17 10 -4 8 13 10 13 10 -1 0 -18 26 -33 41 -24
5 4 6 -2 2 -12 -6 -16 -5 -17 12 -3 17 14 18 13 12 -2 -3 -10 1 -22 11 -30 15
-12 16 -11 3 5 -19 23 1 22 33 -4 14 -11 26 -17 26 -12 0 4 5 0 11 -9 5 -10
15 -18 20 -18 6 0 7 5 4 10 -3 6 6 5 22 -2 15 -7 32 -18 36 -25 4 -7 16 -13
25 -12 14 0 13 2 -3 9 -16 7 -17 9 -3 9 9 1 22 -7 27 -16 7 -11 14 -14 18 -8
5 6 14 11 22 13 12 3 12 0 2 -12 -12 -14 -9 -15 18 -12 17 2 39 -2 48 -9 10
-7 32 -11 50 -9 17 2 35 0 38 -6 3 -5 0 -7 -8 -4 -8 3 -18 1 -22 -5 -4 -7 6
-10 29 -7 20 3 38 0 42 -5 3 -6 13 -8 21 -5 14 6 47 -17 38 -26 -2 -2 6 -5 18
-5 17 -2 19 0 7 7 -13 9 -13 10 0 10 8 0 26 -9 40 -19 18 -14 29 -17 42 -10
14 7 18 6 18 -6 0 -8 5 -15 11 -15 6 0 8 9 4 23 -4 14 -3 18 3 9 5 -7 13 -12
18 -11 5 1 18 1 28 0 20 -1 20 -1 0 -17 -19 -15 -19 -15 2 -5 27 13 74 7 85
-10 7 -11 9 -10 9 4 0 9 -5 17 -12 17 -6 0 -9 2 -6 5 8 8 39 -6 33 -15 -3 -5
-1 -11 5 -15 5 -3 10 -1 10 6 0 10 3 10 12 1 6 -6 18 -8 27 -3 22 10 46 7 44
-5 -2 -12 26 -12 46 1 11 6 13 4 9 -7 -4 -9 0 -15 8 -15 8 0 14 3 14 7 0 3 18
6 39 6 22 -1 37 -4 35 -7 -2 -4 3 -9 11 -12 9 -4 12 -1 9 8 -4 9 1 12 13 10
10 -2 18 -4 18 -5 0 -1 23 -3 50 -4 28 -2 61 -6 74 -11 15 -4 21 -3 17 3 -3 5
1 13 10 16 9 4 13 2 8 -5 -4 -8 1 -9 16 -4 13 4 20 3 17 -2 -3 -5 3 -9 13 -9
10 0 16 4 14 8 -7 11 48 3 75 -11 19 -11 25 -10 36 6 13 17 13 17 12 -1 -1
-10 4 -21 11 -23 7 -3 10 1 6 11 -8 21 5 20 28 -1 13 -11 18 -12 18 -3 0 9 3
10 13 1 10 -8 17 -7 25 1 9 9 12 9 12 -1 0 -7 9 -3 20 10 l19 24 -4 -23 c-4
-21 -2 -22 11 -11 14 11 18 10 29 -4 12 -17 14 -17 28 4 9 11 20 18 27 14 6
-4 18 -1 26 6 12 10 13 9 9 -3 -4 -11 2 -18 22 -24 48 -13 62 -12 58 5 -4 23
36 22 55 -2 15 -18 50 -15 50 4 0 5 5 9 11 9 5 0 7 -6 3 -12 -5 -9 -2 -9 9 1
9 7 17 9 17 4 0 -5 9 -9 20 -9 11 0 20 5 20 11 0 6 3 7 8 0 4 -5 16 -11 27
-11 11 -1 28 -5 38 -9 14 -6 16 -3 11 11 -5 18 -5 18 6 1 11 -18 36 -25 25 -7
-8 13 11 13 36 0 10 -6 19 -7 19 -3 0 4 17 9 38 10 26 2 33 0 22 -6 -10 -7 -3
-9 23 -7 22 2 37 -1 37 -8 0 -6 5 -4 10 4 9 13 13 12 27 -5 12 -15 14 -16 10
-3 -4 12 -2 15 9 11 8 -3 14 1 14 8 1 10 4 9 14 -3 10 -14 15 -15 26 -5 10 9
11 9 6 0 -5 -9 1 -13 19 -13 17 0 24 4 19 11 -3 6 5 4 19 -5 22 -15 25 -15 30
-1 6 15 38 21 51 8 13 -13 51 -10 70 6 11 9 16 11 13 4 -9 -15 47 -35 61 -21
6 6 17 5 30 -3 12 -7 25 -10 29 -6 4 5 1 12 -6 16 -7 5 10 7 40 5 37 -2 57 -8
66 -20 12 -17 18 -10 15 17 -1 4 9 6 21 6 12 -1 45 2 72 6 34 6 45 5 35 -2
-12 -8 -11 -10 7 -8 12 0 19 5 17 9 -3 4 -1 8 5 8 5 0 13 -5 16 -10 4 -6 12
-4 21 5 17 17 44 20 44 6 0 -10 26 -9 36 2 12 12 26 8 21 -6 -3 -9 4 -13 23
-12 16 0 26 4 23 8 -3 5 -12 6 -20 3 -9 -4 -13 -1 -11 6 5 15 48 20 48 6 0 -5
5 -6 10 -3 6 4 7 11 4 17 -4 7 -2 8 4 4 7 -4 12 -15 12 -24 0 -14 2 -15 9 -2
6 8 7 18 5 22 -5 7 40 12 49 6 2 -2 11 3 20 10 9 8 21 11 27 7 5 -3 10 -1 10
5 0 6 5 8 10 5 8 -5 7 -12 -2 -23 -12 -14 -10 -14 12 -2 14 7 28 18 32 24 4 6
12 12 18 12 5 1 15 2 21 3 5 0 7 6 3 13 -4 6 -3 8 4 4 6 -3 13 -2 17 4 4 6 11
8 16 4 5 -3 19 6 31 21 11 14 23 24 26 20 3 -3 -2 -11 -12 -18 -16 -12 -16
-13 3 -13 11 0 19 5 18 11 -1 5 4 9 11 7 7 -1 16 6 19 15 9 24 34 42 50 36 7
-3 16 2 19 12 4 9 13 14 20 11 9 -4 14 2 14 16 0 17 4 20 30 15 23 -5 28 -3
23 9 -4 11 0 15 13 12 16 -2 18 2 16 26 -3 19 0 26 8 21 12 -7 40 11 40 27 0
6 -8 4 -17 -3 -16 -13 -17 -12 -5 3 8 10 17 17 20 16 14 -4 52 23 62 45 11 21
10 21 -9 -2 -13 -14 -21 -18 -21 -9 0 7 11 22 25 32 14 10 25 25 25 32 0 8 5
14 11 14 6 0 8 7 5 16 -3 8 -2 12 4 9 9 -6 11 -2 14 35 1 8 7 14 14 12 13 -2
16 11 5 22 -11 10 -12 37 -2 30 5 -3 7 -10 4 -15 -4 -5 -1 -9 4 -9 15 0 14 12
-6 39 -10 15 -11 21 -3 16 10 -6 12 -3 8 13 -4 12 -1 25 4 29 7 3 8 1 4 -5 -5
-8 0 -12 12 -12 15 0 19 5 15 20 -3 11 0 27 7 35 9 11 9 15 1 15 -8 0 -9 5 -1
19 13 26 13 34 -2 25 -7 -4 -5 1 4 12 9 11 17 28 18 39 2 67 5 76 16 60 11
-14 12 -14 18 0 3 9 2 13 -4 10 -6 -3 -10 3 -10 14 0 10 -3 27 -7 37 -5 13 -3
15 7 9 10 -6 12 -4 7 7 -3 9 0 21 6 27 8 8 8 14 -2 23 -10 11 -11 9 -6 -7 5
-15 4 -17 -3 -6 -7 10 -6 21 5 38 14 21 14 23 -3 23 -15 0 -16 2 -5 9 8 5 16
15 17 23 1 7 5 21 9 31 4 9 3 17 -2 17 -5 0 -9 9 -10 20 -1 13 3 18 10 14 7
-3 4 1 -6 9 -16 13 -16 16 5 42 19 25 20 28 5 37 -13 7 -15 13 -7 29 9 15 7
19 -5 19 -9 0 -14 -4 -11 -8 3 -5 -2 -9 -10 -9 -10 0 -8 7 8 24 17 19 23 37
23 76 1 29 4 63 9 77 7 23 7 24 -6 7 -13 -17 -14 -16 -14 17 0 36 10 47 19 24
4 -10 6 -10 6 -1 1 6 -3 14 -9 18 -6 4 -6 15 0 30 5 14 6 25 1 25 -5 0 -11 9
-14 20 -3 11 -1 20 5 20 6 0 8 12 5 27 -3 15 -1 37 4 50 5 13 5 23 1 23 -4 0
-8 11 -8 25 -1 14 3 25 9 25 6 0 2 7 -9 16 -14 11 -16 17 -6 21 10 4 10 8 1
19 -9 11 -8 14 6 14 17 0 17 1 -1 18 -26 24 -31 72 -7 73 11 0 13 3 6 6 -7 2
-13 11 -13 19 0 8 6 14 13 14 8 0 7 4 -3 10 -13 8 -8 14 11 12 4 -1 3 14 -1
32 -4 19 -3 40 2 47 7 10 8 8 3 -6 -4 -14 -3 -17 5 -9 15 15 2 44 -18 37 -13
-4 -14 -3 -4 5 14 9 26 86 12 77 -4 -2 -6 16 -5 40 1 25 -2 45 -7 45 -4 0 -8
9 -8 20 0 11 4 20 8 20 5 0 10 23 11 50 1 30 -3 50 -9 50 -6 0 -8 5 -5 10 4 6
9 8 13 6 4 -2 7 16 7 39 0 25 -3 39 -7 32 -5 -7 -7 2 -6 20 1 18 6 33 11 33 5
0 7 7 3 15 -3 8 -2 15 3 15 4 0 6 11 3 25 -2 15 -9 22 -16 18 -6 -4 -5 1 3 10
7 9 9 17 4 17 -5 0 -10 7 -10 15 0 12 3 12 16 2 12 -10 13 -9 7 2 -5 8 -3 17
5 23 11 8 11 9 -2 5 -12 -4 -18 3 -23 25 -8 43 -7 60 3 54 5 -4 7 4 3 16 -3
14 -1 19 6 14 13 -8 9 23 -8 55 -11 19 -9 25 11 41 13 11 18 17 12 13 -7 -3
-13 -3 -14 2 0 4 -2 16 -4 26 -2 9 0 15 5 12 4 -3 10 2 14 10 3 8 0 17 -6 21
-7 4 -8 3 -4 -4 5 -8 1 -10 -10 -5 -11 4 -13 8 -6 11 7 2 12 12 12 23 0 10 5
19 11 19 6 0 9 6 6 14 -3 8 -1 17 6 20 7 2 4 5 -7 5 -13 1 -16 6 -11 19 5 9 8
25 9 35 0 9 4 17 9 17 5 0 4 7 -3 15 -6 8 -9 18 -6 24 8 13 -4 42 -15 35 -5
-3 -9 -1 -9 4 0 6 7 13 16 16 8 3 12 2 9 -3 -3 -5 -2 -12 3 -15 4 -2 9 6 10
19 1 18 -3 23 -16 20 -15 -3 -18 3 -15 32 3 41 8 50 16 28 4 -8 2 -15 -3 -15
-5 0 -6 -8 -3 -17 6 -15 7 -14 13 3 4 10 3 27 -2 37 -5 9 -6 23 -2 30 5 6 0 5
-11 -3 -17 -14 -18 -14 -2 17 21 39 21 43 1 43 -8 0 -13 4 -9 10 3 5 11 8 18
6 7 -1 9 -1 5 1 -5 3 -8 11 -8 19 0 8 -3 13 -7 13 -20 -3 -23 2 -10 16 9 8 13
25 10 37 -4 19 -3 20 6 8 8 -11 11 -11 11 -2 0 7 -7 15 -16 19 -12 5 -13 7 -2
14 10 6 10 11 1 20 -9 9 -9 17 -1 33 9 18 9 19 -3 9 -12 -9 -14 -4 -15 32 0
25 3 42 8 39 4 -3 12 6 18 20 9 25 -2 79 -21 101 -12 13 -11 28 1 20 6 -3 7 1
4 9 -4 9 -1 16 6 16 9 0 10 3 1 14 -6 7 -9 20 -6 28 3 8 1 27 -5 42 -7 20 -7
25 2 20 8 -5 9 -2 5 9 -3 9 -1 19 5 23 6 4 8 3 5 -2 -3 -6 -1 -16 4 -24 7 -11
8 -7 5 14 -3 16 -9 32 -13 35 -11 7 -11 61 0 54 4 -2 7 6 7 18 0 19 2 20 17 8
15 -13 15 -12 4 8 -8 15 -17 20 -29 16 -15 -6 -15 -5 2 12 12 12 15 20 7 23
-6 2 -8 8 -5 13 3 6 1 16 -5 23 -14 17 -22 78 -9 70 5 -3 7 -12 4 -20 -3 -8 1
-14 9 -14 19 0 19 10 -1 38 -9 13 -13 26 -10 29 3 4 6 1 6 -5 0 -7 4 -12 8
-12 5 0 9 7 9 15 0 8 -4 15 -9 15 -5 0 -6 5 -3 10 4 6 1 19 -6 28 -11 14 -11
15 1 4 17 -15 34 -16 25 -2 -4 6 -1 18 6 26 10 12 9 13 -5 8 -9 -3 -16 -1 -16
5 0 6 5 11 11 11 8 0 8 4 0 14 -7 9 -8 17 -2 20 5 3 12 0 14 -6 3 -7 6 -8 6
-3 0 6 -4 17 -9 25 -8 13 -11 12 -22 -3 -13 -17 -14 -17 -14 2 0 14 7 21 19
21 17 0 17 1 2 16 -21 22 -12 29 17 13 21 -11 22 -11 9 4 -7 10 -20 17 -27 17
-8 0 -11 6 -8 15 5 11 11 12 27 4 19 -9 20 -8 6 3 -17 15 -32 48 -21 48 4 0 8
9 8 20 0 11 -4 20 -9 20 -5 0 -7 9 -4 19 2 10 1 25 -4 32 -4 8 -3 19 3 26 7 9
7 13 -1 13 -6 0 -11 5 -11 11 0 5 6 7 13 3 9 -6 9 -4 -1 8 -8 10 -9 19 -3 22
5 3 7 15 4 27 -4 16 -8 18 -14 7 -6 -9 -8 -4 -7 14 2 22 5 25 18 15 8 -6 12
-8 8 -3 -4 5 -3 17 3 28 10 18 8 19 -13 14 -18 -5 -17 -3 7 10 27 15 28 18 11
24 -12 4 -15 9 -9 13 6 4 10 24 8 44 -2 30 -7 39 -26 44 -13 4 -18 8 -11 9 14
3 29 6 40 10 4 1 11 2 15 1 5 -1 6 3 2 9 -5 8 -11 8 -21 -1 -20 -16 -31 16
-13 39 13 15 12 16 -3 4 -10 -8 -19 -9 -22 -3 -4 5 2 14 11 20 15 9 15 12 4
20 -9 6 -10 11 -2 15 15 10 14 29 -1 20 -7 -4 -5 2 5 13 14 16 15 22 5 26 -10
4 -10 6 0 6 9 1 8 7 -4 26 -15 23 -15 25 1 25 11 0 15 5 11 15 -5 14 5 20 27
16 5 -1 6 3 2 9 -3 6 -11 8 -16 5 -5 -4 -9 -1 -9 6 0 7 -6 4 -14 -7 -14 -18
-15 -18 -12 -1 1 10 7 22 12 25 18 12 24 41 10 49 -18 11 -26 62 -11 71 16 9
25 84 10 78 -8 -3 -10 5 -7 21 3 15 1 23 -4 20 -6 -3 -11 4 -11 16 -2 17 0 19
7 7 8 -12 10 -12 10 4 0 10 8 25 18 32 15 12 15 12 -5 7 -13 -3 -23 -10 -23
-16 0 -6 -3 -7 -6 -4 -4 4 -1 14 7 24 12 15 12 16 -3 10 -17 -6 -17 -4 -1 35
12 31 14 43 5 46 -7 2 -12 8 -12 13 0 6 5 7 10 4 18 -11 11 14 -7 25 -17 11
-17 11 0 6 9 -3 17 -1 17 4 0 6 -6 10 -12 10 -10 0 -10 2 -1 8 13 8 6 52 -8
52 -5 0 -3 10 6 23 13 20 13 26 1 42 -8 11 -12 25 -9 32 3 7 0 13 -6 13 -6 0
-10 6 -8 13 1 6 -4 11 -10 10 -7 -2 -13 2 -13 7 0 6 4 10 8 10 12 0 14 81 2
95 -11 13 -14 46 -7 88 2 15 -1 31 -7 35 -6 4 -11 13 -12 20 -4 47 -4 48 -14
32 -7 -12 -9 -10 -7 7 0 12 4 20 8 17 4 -2 6 7 5 20 0 13 -5 22 -9 19 -4 -2
-5 7 -1 21 4 16 2 26 -5 26 -6 0 -11 7 -11 16 0 8 4 12 10 9 6 -3 7 1 4 9 -3
9 -11 13 -16 10 -6 -4 -8 -1 -6 7 3 8 12 13 19 11 8 -1 5 4 -5 13 -23 17 -30
45 -13 45 7 0 4 5 -7 11 -14 9 -20 8 -27 -2 -5 -8 -9 -9 -9 -3 0 6 6 17 14 23
11 9 15 9 19 -1 3 -7 4 -1 3 15 -2 15 -6 30 -11 35 -4 4 -5 2 -2 -4 3 -6 0
-11 -8 -11 -11 0 -9 7 6 29 21 29 14 38 -11 16 -12 -11 -12 -10 -3 2 14 20 13
52 -3 46 -7 -3 -14 8 -18 27 -4 18 -15 50 -26 72 -11 25 -15 42 -8 46 5 3 -2
19 -17 35 -15 16 -22 20 -14 9 11 -17 11 -18 -1 -8 -7 7 -14 24 -16 39 -3 23
-1 24 9 10 12 -16 13 -15 14 3 1 13 -4 21 -13 21 -8 0 -13 4 -10 9 4 5 0 12
-6 14 -10 4 -10 6 -1 6 10 1 10 7 1 26 -6 13 -14 23 -17 20 -4 -2 -8 6 -8 18
-2 18 0 19 8 7 12 -17 10 -11 -15 48 -15 34 -22 41 -37 37 -18 -6 -19 9 -19
482 0 294 -4 524 -11 578 -48 391 -276 657 -652 757 l-82 23 -1645 2 -1645 2
-115 -30z m3453 -12 c82 -20 205 -68 264 -103 24 -14 46 -25 50 -26 10 -2 62
-70 63 -82 0 -6 12 -23 28 -39 19 -21 10 -17 -33 15 -83 63 -156 105 -242 139
-156 62 -89 60 -1883 57 -1548 -3 -1638 -4 -1700 -21 -96 -27 -254 -108 -340
-173 -41 -31 -68 -49 -61 -40 7 9 11 22 8 30 -8 21 107 125 180 164 66 34 184
70 293 87 57 10 467 12 1690 11 1483 -2 1621 -3 1683 -19z m36 -85 c40 -12 90
-32 110 -43 l36 -20 -59 7 c-220 23 -407 25 -446 4 -24 -13 -100 -13 -100 0 0
12 -3077 7 -3145 -5 -92 -15 58 48 165 70 53 11 382 13 1715 12 l1650 -2 74
-23z m-846 -59 c-51 -2 -136 -2 -190 0 -54 1 -12 3 92 3 105 0 149 -2 98 -3z
m145 0 c-10 -2 -26 -2 -35 0 -10 3 -2 5 17 5 19 0 27 -2 18 -5z m-2558 -99 c0
-8 -19 -13 -24 -6 -3 5 1 9 9 9 8 0 15 -2 15 -3z m-127 -11 c-7 -2 -21 -2 -30
0 -10 3 -4 5 12 5 17 0 24 -2 18 -5z m-56 -9 c-3 -3 -12 -4 -19 -1 -8 3 -5 6
6 6 11 1 17 -2 13 -5z m-40 -10 c-3 -3 -12 -4 -19 -1 -8 3 -5 6 6 6 11 1 17
-2 13 -5z m-41 -13 c-6 -9 -46 -22 -46 -15 0 3 10 9 23 14 29 11 29 11 23 1z
m-56 -26 c0 -2 -10 -9 -22 -15 -22 -11 -22 -10 -4 4 21 17 26 19 26 11z m-249
-54 c-11 -21 -17 -41 -14 -45 3 -3 0 -13 -8 -23 -11 -13 -11 -15 -1 -9 8 5 3
-13 -11 -40 -43 -87 -66 -170 -77 -279 -5 -58 -9 -109 -9 -113 4 -23 -4 -32
-29 -32 -16 0 -36 6 -45 13 -40 30 24 331 94 437 38 58 75 100 89 100 6 0 9 4
6 9 -5 8 3 15 22 20 1 1 -6 -16 -17 -38z m199 26 c0 -1 -28 -26 -62 -56 l-63
-53 58 56 c52 50 67 62 67 53z m-380 -181 c-15 -46 -36 -131 -45 -188 -28
-178 -29 -183 -45 -185 -33 -6 -37 10 -29 109 10 110 52 254 100 338 29 49 33
52 40 33 5 -15 -1 -49 -21 -107z m4508 97 c52 -45 97 -179 112 -333 11 -118
11 -123 -13 -133 -29 -11 -37 0 -37 52 0 94 -48 300 -96 419 -8 18 10 15 34
-5z m-7 -208 c11 -38 22 -117 26 -175 l6 -106 -41 -2 -40 -3 -7 108 c-4 59
-14 140 -22 178 -16 73 -17 110 -7 159 6 29 7 29 36 -29 16 -33 38 -91 49
-130z m-2598 48 c-95 -2 -251 -2 -345 0 -95 1 -18 3 172 3 190 0 267 -2 173
-3z m-1852 -353 c19 0 19 -79 19 -3270 l0 -3270 -44 0 c-29 0 -46 5 -49 14 -5
11 -11 5470 -8 6360 l1 179 31 -7 c17 -3 40 -6 50 -6z m4471 5 c11 -4 13 -559
13 -3263 0 -1791 -4 -3263 -8 -3269 -5 -7 -24 -13 -43 -13 l-34 0 0 3275 0
3275 29 0 c16 0 35 -2 43 -5z m-4594 -3273 l2 -3262 -24 0 c-21 0 -24 5 -30
61 -3 34 -6 1501 -6 3260 0 2548 3 3198 13 3202 6 3 19 5 27 4 13 -2 15 -374
18 -3265z m4702 3 l0 -3265 -30 0 -30 0 0 3265 0 3265 30 0 30 0 0 -3265z
m-2287 3135 l27 -31 -1 -922 c-1 -507 -4 -943 -6 -970 -4 -36 -12 -53 -35 -75
-17 -15 -50 -46 -73 -70 l-42 -42 -19 21 c-18 20 -19 53 -22 1033 -1 556 0
1021 3 1034 3 12 20 32 38 43 44 27 93 19 130 -21z m-702 -486 c17 -8 37 -30
45 -49 16 -40 19 -118 4 -145 -5 -10 -50 -35 -99 -55 -49 -20 -103 -50 -121
-66 -30 -28 -32 -34 -28 -82 l4 -52 -85 -55 c-103 -66 -271 -230 -354 -347
-116 -163 -203 -365 -249 -578 -28 -130 -36 -432 -15 -581 30 -213 133 -472
258 -649 99 -139 292 -327 425 -414 l111 -72 -5 -147 c-5 -164 -11 -176 -70
-168 -42 6 -195 84 -302 154 -109 71 -331 293 -423 422 -135 192 -256 499
-269 690 l-3 35 -30 -45 c-16 -25 -30 -46 -31 -48 -1 -2 -10 -4 -21 -5 -20 -1
-25 -31 -9 -55 4 -7 6 -16 3 -18 -10 -10 -88 69 -110 110 -21 39 -22 54 -25
374 -3 372 0 400 61 462 33 34 118 80 149 80 10 0 20 10 23 23 3 12 12 54 20
92 55 250 189 510 380 735 128 151 227 236 385 332 99 61 122 73 223 119 51
23 118 24 158 3z m1444 -18 c365 -175 660 -475 835 -848 42 -91 103 -280 121
-382 12 -66 13 -66 46 -66 76 0 158 -70 188 -159 14 -44 16 -91 13 -368 -3
-303 -4 -320 -25 -365 -12 -27 -25 -48 -28 -48 -3 0 -3 5 0 11 4 6 -2 13 -13
16 -28 7 -68 63 -52 73 8 5 8 9 -4 13 -15 6 -63 105 -58 120 1 4 -3 7 -9 7 -5
0 -7 5 -4 10 3 6 1 10 -5 10 -6 0 -9 4 -5 9 3 5 1 12 -5 16 -6 4 -10 -15 -10
-52 -1 -172 -40 -377 -100 -524 -16 -41 -30 -75 -30 -76 0 -2 -9 -3 -19 -3
-11 0 -22 -4 -26 -10 -9 -14 -37 0 -31 16 3 8 1 14 -4 14 -13 0 -13 -27 0 -35
5 -3 20 -8 31 -10 12 -3 24 -7 28 -11 3 -4 -1 -5 -10 -1 -9 3 -22 0 -29 -6
-10 -9 -11 -9 -6 1 14 24 -30 12 -55 -15 -13 -14 -18 -23 -11 -19 14 8 12 -28
-3 -41 -4 -5 -5 -2 -1 5 4 7 1 15 -8 18 -9 3 -13 11 -9 17 3 6 1 7 -5 3 -7 -4
-12 -1 -12 6 0 9 -3 9 -10 -2 -5 -8 -9 -22 -9 -30 0 -10 3 -8 8 5 7 17 8 17
13 -8 3 -15 1 -30 -5 -34 -5 -3 -7 -1 -4 4 4 6 -5 13 -20 16 -24 4 -26 4 -10
-8 22 -16 22 -25 0 -25 -10 0 -25 -5 -33 -10 -13 -8 -12 -11 5 -24 18 -13 18
-14 -10 -9 -17 2 -25 1 -19 -4 11 -8 12 -48 2 -59 -3 -3 -9 -1 -13 5 -3 6 -1
11 4 11 6 0 11 5 11 11 0 5 -5 7 -12 3 -6 -4 -8 -3 -5 3 10 16 -16 34 -33 22
-11 -7 -12 -11 -3 -17 8 -5 4 -14 -12 -28 -13 -12 -26 -20 -28 -18 -2 3 -10
-2 -17 -11 -7 -9 -8 -15 -2 -15 6 0 13 6 15 13 4 7 6 8 6 1 2 -23 -26 -36 -51
-24 -22 11 -22 10 2 -10 l25 -22 -26 6 c-23 5 -26 3 -22 -18 4 -17 -1 -27 -16
-36 -12 -6 -19 -15 -16 -21 4 -5 4 -9 1 -9 -2 0 -11 -3 -20 -6 -9 -3 -16 -1
-16 6 0 6 6 8 13 4 6 -4 9 -4 5 1 -4 4 3 16 15 26 12 10 18 18 14 19 -5 0 -15
-7 -24 -15 -8 -8 -20 -12 -26 -8 -7 3 -9 3 -5 -2 4 -4 3 -14 -3 -22 -6 -7 -8
-13 -5 -13 4 0 -2 -10 -14 -22 -11 -12 -20 -27 -19 -32 0 -6 3 -5 6 2 5 13 23
7 23 -8 0 -10 -20 -8 -39 4 -8 5 -30 10 -50 11 -20 1 -28 0 -18 -2 28 -7 16
-38 -13 -36 -24 3 -24 2 -3 -6 21 -10 40 -47 29 -58 -3 -4 -6 -1 -6 5 0 6 -9
16 -20 22 -16 9 -20 8 -20 -5 0 -10 5 -13 12 -9 7 4 8 3 4 -5 -4 -6 -11 -9
-16 -6 -4 3 -10 0 -12 -6 -2 -7 -15 -12 -28 -13 -31 -2 -50 -13 -50 -29 0 -7
4 -6 10 3 5 8 10 11 10 5 0 -5 -4 -16 -9 -24 -7 -11 -10 -8 -16 9 l-7 23 -14
-24 c-11 -20 -13 -21 -14 -5 0 15 -2 16 -15 6 -9 -7 -14 -19 -11 -27 4 -10 -1
-9 -18 3 -22 14 -25 14 -36 -3 -8 -13 -13 -14 -16 -5 -8 19 -21 14 -29 -10 -7
-21 -8 -20 -15 12 -5 26 -8 10 -9 -58 0 -51 4 -103 10 -115 10 -21 10 -21 -5
-3 -15 19 -18 59 -21 258 l0 42 97 60 c131 82 224 160 319 270 186 211 292
428 360 731 30 131 37 399 15 520 -41 222 -103 394 -198 552 -61 101 -88 132
-49 55 11 -22 17 -42 14 -46 -4 -3 1 -6 11 -6 9 0 15 -4 12 -9 -6 -8 7 -52 32
-111 8 -19 17 -54 20 -77 2 -24 9 -46 13 -49 5 -3 9 -18 9 -33 0 -15 3 -31 7
-35 12 -11 14 -36 19 -181 4 -99 2 -136 -5 -125 -8 11 -11 -2 -11 -49 0 -36
-4 -78 -9 -95 -6 -17 -14 -60 -20 -95 -6 -36 -14 -67 -19 -70 -5 -3 -14 -28
-21 -56 -7 -27 -15 -57 -17 -65 -17 -71 -58 -192 -86 -257 -45 -102 -169 -291
-244 -370 -77 -80 -181 -171 -219 -190 -38 -19 -28 -9 67 65 136 108 300 315
367 465 72 159 110 327 118 512 7 150 -6 266 -43 393 -78 269 -209 477 -396
626 l-83 67 -6 -198 c-9 -294 -10 -309 -16 -293 -15 41 -25 39 -73 -11 -27
-28 -52 -64 -55 -80 -4 -16 -11 -27 -16 -24 -5 4 -5 -5 1 -19 13 -34 6 -33
-20 4 -20 28 -21 43 -26 402 -6 422 -4 437 57 493 33 30 46 35 88 35 26 0 63
-5 82 -11 55 -19 168 -98 254 -179 44 -41 73 -66 65 -55 -31 40 -141 139 -212
190 -62 44 -73 56 -70 78 7 70 -41 119 -169 172 -35 15 -70 32 -76 39 -17 16
-20 125 -5 162 30 72 117 83 227 30z m-1074 -62 l24 -26 3 -492 c2 -312 -1
-503 -7 -520 -6 -14 -25 -35 -43 -46 -41 -25 -83 -20 -118 15 l-25 25 -3 493
c-1 270 0 502 3 515 10 42 41 62 93 62 39 0 53 -5 73 -26z m660 -33 l29 -29 0
-405 0 -405 -26 -31 c-36 -43 -93 -44 -135 -2 l-29 29 0 412 0 411 26 24 c39
36 96 34 135 -4z m-1032 -349 c13 -10 32 -33 42 -52 18 -32 19 -64 19 -402 l0
-368 -27 -30 c-44 -49 -124 -44 -153 10 -5 10 -12 136 -16 281 -4 145 -8 265
-9 267 -1 1 -27 -16 -56 -40 -187 -147 -346 -383 -423 -626 -99 -317 -67 -668
90 -972 86 -165 228 -339 358 -437 74 -56 88 -69 58 -54 -13 7 -58 41 -102 76
-43 35 -81 60 -85 57 -4 -4 -5 0 -3 8 2 8 -3 14 -10 12 -8 -1 -11 2 -7 8 5 9
-15 15 -38 11 -4 0 -6 5 -5 11 2 8 -10 13 -32 13 -53 1 -91 26 -174 110 -27
28 -60 67 -73 88 -40 63 -110 209 -124 257 -7 25 -16 50 -20 56 -5 6 -11 36
-15 67 -4 38 -10 54 -18 50 -6 -4 -5 0 2 9 10 13 10 17 0 20 -16 6 -22 368 -7
473 5 39 13 95 18 125 4 30 18 82 29 115 12 32 22 69 22 82 0 12 4 24 9 27 5
4 12 25 16 48 4 24 13 52 20 63 7 11 16 31 19 45 4 14 -10 -3 -30 -38 -39 -68
-53 -77 -29 -19 8 20 14 38 13 39 -4 5 56 104 121 202 123 185 363 395 486
427 42 11 105 2 134 -19z m3103 -349 c17 -15 18 -42 18 -438 0 -232 -3 -425
-7 -428 -3 -4 -12 -2 -20 4 -10 9 -13 8 -13 -5 0 -17 -8 -20 -26 -8 -17 10
-27 815 -11 845 29 54 31 55 59 30z m-3891 -410 c-12 -20 -14 -14 -5 12 4 9 9
14 11 11 3 -2 0 -13 -6 -23z m4124 -153 c-3 -5 -12 -10 -18 -10 -7 0 -6 4 3
10 19 12 23 12 15 0z m30 -70 c3 -6 -1 -7 -9 -4 -18 7 -21 14 -7 14 6 0 13 -4
16 -10z m-3475 -146 l-25 -15 24 7 c55 15 166 7 219 -16 91 -39 185 -166 181
-244 -1 -14 -3 -11 -8 9 l-6 29 -35 -35 c-19 -20 -41 -45 -47 -55 -7 -10 -24
-36 -38 -57 -14 -21 -25 -41 -25 -46 0 -4 -20 -21 -45 -39 -25 -17 -45 -36
-45 -42 0 -5 -9 -10 -20 -10 -11 0 -20 -5 -20 -11 0 -5 -4 -8 -9 -5 -4 3 -16
-3 -26 -14 -10 -11 -25 -20 -33 -20 -10 0 -13 -7 -9 -20 4 -18 2 -20 -16 -14
-76 23 -144 79 -178 145 -38 75 -42 155 -15 284 l7 30 -15 -30 -14 -30 -1 32
c-1 32 27 104 52 136 19 23 83 46 132 46 40 0 40 0 15 -15z m1225 -4 c-4 -7 3
-8 22 -3 15 4 60 7 98 7 114 0 214 -56 259 -145 l24 -49 -29 -31 c-16 -17 -29
-37 -29 -44 0 -7 -6 -18 -14 -25 -8 -6 -12 -19 -9 -28 3 -9 3 -14 -2 -10 -4 4
-19 -10 -32 -30 -14 -20 -32 -41 -39 -45 -8 -5 -12 -12 -9 -18 4 -5 2 -9 -4
-9 -5 0 -26 -15 -45 -34 -20 -18 -51 -40 -69 -47 -17 -7 -40 -20 -49 -28 -16
-14 -16 -17 -2 -39 16 -24 16 -24 -18 -17 -132 29 -228 155 -228 299 0 74 17
129 59 190 17 24 27 47 23 51 -4 3 -2 6 3 5 21 -5 29 1 15 10 -11 7 -5 13 30
29 53 24 53 24 45 11z m-1087 -607 c-10 -2 -28 -2 -40 0 -13 2 -5 4 17 4 22 1
32 -1 23 -4z m3349 -140 c-4 -3 -1 -13 6 -22 11 -14 10 -14 -5 -2 -16 12 -16
31 -1 31 4 0 3 -3 0 -7z m-2 -43 c10 -11 14 -20 9 -20 -5 0 -15 9 -22 20 -7
11 -11 20 -9 20 2 0 12 -9 22 -20z m-1088 -256 c-3 -3 -12 -4 -19 -1 -8 3 -5
6 6 6 11 1 17 -2 13 -5z m-1559 -29 c176 -35 333 -154 406 -306 39 -83 59
-195 37 -208 -7 -5 -101 -9 -209 -10 -193 -2 -198 -3 -221 -26 -30 -30 -31
-80 -1 -109 19 -20 34 -21 233 -26 l212 -5 3 -77 c5 -124 16 -118 -217 -118
-185 0 -200 -1 -225 -21 -35 -28 -36 -86 -2 -118 24 -22 33 -23 233 -28 l208
-6 -5 -86 c-4 -61 -9 -85 -17 -84 -7 2 -13 -1 -13 -6 0 -5 -77 -10 -180 -11
-186 -1 -203 -3 -232 -28 -21 -18 -24 -88 -5 -113 27 -35 54 -39 251 -39 124
0 196 -4 196 -10 0 -6 -30 -11 -67 -12 l-68 -1 55 -7 c54 -7 54 -7 12 -8 -32
-2 -49 -8 -63 -24 -10 -13 -18 -17 -19 -10 0 18 -20 15 -20 -4 0 -8 -4 -13 -9
-10 -4 3 -16 -3 -26 -14 -14 -15 -15 -20 -4 -20 8 0 1 -7 -16 -16 -43 -22 -66
-45 -58 -58 4 -6 0 -5 -9 2 -14 11 -16 10 -11 -9 5 -17 3 -21 -9 -16 -11 4
-18 -1 -21 -15 -4 -15 -11 -19 -26 -15 -18 4 -19 2 -10 -14 5 -10 6 -20 2 -20
-4 -1 -12 -2 -18 -4 -5 -1 -17 -3 -26 -3 -9 -1 -21 -12 -27 -24 -6 -13 -11
-18 -11 -11 -1 18 -36 4 -46 -20 -6 -12 -29 -30 -52 -42 -24 -11 -43 -24 -43
-29 0 -10 -51 -51 -65 -51 -5 0 -16 -4 -23 -9 -10 -6 -9 -11 5 -23 16 -13 14
-14 -22 -8 -199 33 -399 243 -413 435 l-5 70 191 0 c122 0 200 4 216 11 32 15
59 70 50 104 -3 14 -18 34 -31 45 -24 18 -41 20 -218 20 -224 0 -215 -5 -207
117 l4 73 36 6 c19 4 104 4 188 0 127 -6 158 -5 182 8 57 30 63 103 10 140
-19 13 -54 16 -209 16 -137 0 -189 3 -197 13 -17 21 -24 74 -17 132 l7 55 202
0 c197 0 203 1 223 23 38 41 35 104 -6 124 -9 4 -108 10 -221 13 l-205 5 2 60
c3 114 92 276 192 349 95 70 242 123 344 125 26 1 83 -6 125 -14z m1515 -72
c-3 -7 -6 -13 -8 -13 -2 0 -5 6 -8 13 -3 8 1 14 8 14 7 0 11 -6 8 -14z m-148
-53 c3 -5 2 -10 -4 -10 -5 0 -13 5 -16 10 -3 6 -2 10 4 10 5 0 13 -4 16 -10z
m-71 -98 c3 -5 -1 -9 -9 -9 -8 0 -12 4 -9 9 3 4 7 8 9 8 2 0 6 -4 9 -8z m-94
-87 c7 -9 8 -15 2 -15 -5 0 -12 7 -16 15 -3 8 -4 15 -2 15 2 0 9 -7 16 -15z
m-199 -158 c-13 -13 -26 -3 -16 12 3 6 11 8 17 5 6 -4 6 -10 -1 -17z m-94 -93
c-3 -3 -12 -4 -19 -1 -8 3 -5 6 6 6 11 1 17 -2 13 -5z m-32 -14 c3 -5 1 -10
-4 -10 -6 0 -11 5 -11 10 0 6 2 10 4 10 3 0 8 -4 11 -10z m-185 -60 c0 -5 -4
-10 -10 -10 -5 0 -10 5 -10 10 0 6 5 10 10 10 6 0 10 -4 10 -10z m1947 -272
c-3 -8 -6 -5 -6 6 -1 11 2 17 5 13 3 -3 4 -12 1 -19z m-3617 -181 c13 -7 34
-27 46 -44 19 -28 22 -50 27 -200 6 -188 16 -235 75 -357 154 -319 496 -514
819 -467 99 14 235 62 319 112 74 44 206 168 254 238 106 158 130 237 139 466
7 195 12 214 64 245 65 40 148 15 180 -53 22 -45 23 -281 3 -389 -43 -222
-144 -413 -303 -571 -89 -87 -121 -113 -214 -167 -89 -53 -198 -95 -299 -116
-47 -9 -88 -20 -92 -23 -8 -8 -17 -106 -18 -194 0 -43 -4 -66 -10 -62 -6 4
-10 -7 -10 -24 0 -17 -4 -31 -9 -31 -5 0 -12 -13 -16 -30 -4 -17 -11 -30 -17
-30 -6 0 -7 -8 -4 -17 4 -9 1 -20 -6 -25 -7 -4 52 -8 132 -8 80 0 163 -5 185
-11 49 -13 91 -51 106 -96 12 -38 3 -97 -14 -86 -7 4 -8 0 -3 -13 4 -10 4 -15
0 -11 -4 4 -18 -8 -31 -25 -12 -18 -23 -28 -23 -22 0 5 -4 3 -9 -4 -6 -11 -84
-15 -363 -19 -196 -3 -376 -3 -402 1 -59 9 -110 55 -120 109 -9 50 26 124 69
148 30 17 122 29 228 29 l57 0 0 210 c0 160 -3 211 -12 214 -7 2 -62 15 -123
30 -304 71 -556 284 -700 589 -75 158 -87 215 -92 435 -5 167 -3 196 11 218
37 56 119 80 176 51z m3626 -407 c-2 -51 -9 -69 -21 -51 -3 6 -2 11 4 11 6 0
9 14 7 32 -3 28 1 58 9 58 1 0 2 -22 1 -50z m-5072 -1816 c3 -9 6 -28 6 -42 0
-37 43 -194 73 -267 24 -56 26 -85 6 -85 -12 0 -65 94 -90 160 -30 78 -62 217
-55 235 7 20 52 19 60 -1z m135 -85 c12 -55 31 -120 40 -143 14 -31 17 -53 11
-89 -4 -25 -4 -50 -1 -54 3 -5 -4 3 -16 17 -54 60 -108 199 -128 328 l-7 42
39 0 39 0 23 -101z m4444 59 c-17 -140 -78 -296 -148 -373 -20 -22 -33 -33
-29 -25 5 8 9 21 10 30 0 8 15 58 32 110 35 105 47 157 57 243 l6 57 39 0 38
0 -5 -42z m99 -3 c-9 -100 -89 -324 -129 -356 -28 -24 -24 21 11 114 29 77 66
234 66 279 0 5 12 8 28 6 25 -3 27 -6 24 -43z m358 -190 c-7 -9 -15 -13 -19
-10 -3 3 1 10 9 15 21 14 24 12 10 -5z m-4711 -399 c88 -53 205 -96 327 -121
70 -14 256 -15 1704 -13 1545 3 1628 4 1690 22 89 25 238 96 316 151 36 25 67
45 69 45 3 0 -8 -17 -23 -39 -55 -78 -211 -168 -363 -211 -146 -40 -204 -41
-1789 -37 -1324 3 -1534 6 -1590 19 -216 51 -326 104 -431 208 -94 93 -128
147 -46 75 30 -28 92 -72 136 -99z m3900 -13 c-19 -23 -103 -58 -174 -73 -48
-11 -402 -13 -1745 -11 -1834 2 -1747 -1 -1867 58 -77 38 -49 40 49 4 46 -17
99 -33 118 -36 32 -6 33 -5 15 7 -17 11 -7 14 80 18 100 6 1739 15 2630 15
516 0 705 -4 705 -14 0 -4 -14 -12 -32 -19 -17 -6 -29 -15 -25 -18 7 -7 227
63 242 77 15 15 18 10 4 -8z m601 -297 c0 -2 -8 -10 -17 -17 -16 -13 -17 -12
-4 4 13 16 21 21 21 13z m-2054 -383 c-8 -8 -36 10 -36 23 0 11 4 10 20 -3 11
-9 18 -18 16 -20z"/>
<path d="M4350 4285 c-7 -8 -19 -15 -28 -15 -8 0 -13 -3 -9 -6 9 -9 45 5 51
21 7 19 2 19 -14 0z"/>
<path d="M6202 6994 c10 -10 20 -16 22 -13 3 3 -5 11 -17 18 -21 13 -21 12 -5
-5z"/>
<path d="M6250 6940 c0 -5 12 -18 26 -29 15 -12 23 -21 18 -21 -5 0 4 -12 19
-26 15 -14 24 -30 21 -36 -4 -6 -3 -8 4 -4 5 3 12 0 15 -6 2 -7 7 -10 11 -7 4
3 -7 21 -23 38 -17 18 -30 35 -29 38 0 3 -14 18 -31 34 -17 15 -31 24 -31 19z"/>
<path d="M6803 5195 c0 -8 4 -12 9 -9 5 3 6 10 3 15 -9 13 -12 11 -12 -6z"/>
<path d="M6309 4863 c-13 -16 -12 -17 4 -4 16 13 21 21 13 21 -2 0 -10 -8 -17
-17z"/>
<path d="M6209 4753 c-13 -16 -12 -17 4 -4 16 13 21 21 13 21 -2 0 -10 -8 -17
-17z"/>
<path d="M6328 4743 c6 -2 18 -2 25 0 6 3 1 5 -13 5 -14 0 -19 -2 -12 -5z"/>
<path d="M6144 4698 l-19 -23 23 19 c12 11 22 21 22 23 0 8 -8 2 -26 -19z"/>
<path d="M6256 4679 c4 -17 3 -20 -4 -11 -7 11 -11 10 -16 -4 -3 -9 -4 -19 -1
-22 3 -3 5 1 5 9 0 12 2 12 9 0 7 -11 10 -9 16 9 4 12 2 27 -3 32 -8 8 -9 4
-6 -13z"/>
<path d="M6095 4660 c-3 -6 1 -7 9 -4 18 7 21 14 7 14 -6 0 -13 -4 -16 -10z"/>
<path d="M6116 4555 c-3 -9 -10 -13 -16 -10 -5 3 -10 2 -10 -3 0 -6 8 -13 17
-16 10 -4 14 -4 10 0 -4 4 -2 13 5 21 6 7 9 16 6 19 -3 3 -8 -2 -12 -11z"/>
<path d="M7572 6820 c0 -19 2 -27 5 -17 2 9 2 25 0 35 -3 9 -5 1 -5 -18z"/>
<path d="M7573 6725 c0 -27 2 -38 4 -22 2 15 2 37 0 50 -2 12 -4 0 -4 -28z"/>
<path d="M5629 3935 c-1 -14 -2 -31 -3 -37 -1 -7 -8 -16 -16 -20 -11 -5 -9 -7
8 -7 12 -1 22 -5 22 -11 0 -5 -10 -10 -22 -11 -13 0 -17 -3 -9 -6 11 -5 11 -7
0 -14 -11 -7 -10 -9 4 -9 10 0 20 7 24 16 5 13 7 13 14 2 5 -8 8 -2 6 17 -1
17 -6 34 -12 38 -6 6 -6 10 3 14 6 2 12 16 12 29 0 33 -30 32 -31 -1z"/>
<path d="M2652 7910 c0 -14 2 -19 5 -12 2 6 2 18 0 25 -3 6 -5 1 -5 -13z"/>
<path d="M7534 7505 c0 -14 4 -25 8 -25 4 0 7 9 5 20 -5 29 -13 33 -13 5z"/>
<path d="M2625 6300 c-3 -5 -1 -10 4 -10 6 0 11 5 11 10 0 6 -2 10 -4 10 -3 0
-8 -4 -11 -10z"/>
<path d="M7898 5093 c7 -3 16 -2 19 1 4 3 -2 6 -13 5 -11 0 -14 -3 -6 -6z"/>
<path d="M7860 4600 c0 -5 5 -10 11 -10 5 0 7 5 4 10 -3 6 -8 10 -11 10 -2 0
-4 -4 -4 -10z"/>
<path d="M7850 3281 c0 -4 10 -12 23 -20 19 -13 21 -12 10 1 -7 8 -11 17 -8
20 3 2 -2 5 -10 5 -8 0 -15 -3 -15 -6z"/>
<path d="M7860 2690 c0 -11 2 -20 4 -20 2 0 6 9 9 20 3 11 1 20 -4 20 -5 0 -9
-9 -9 -20z"/>
<path d="M7830 2320 c0 -5 5 -10 10 -10 6 0 10 5 10 10 0 6 -4 10 -10 10 -5 0
-10 -4 -10 -10z"/>
<path d="M7850 1740 c0 -5 5 -10 11 -10 5 0 7 5 4 10 -3 6 -8 10 -11 10 -2 0
-4 -4 -4 -10z"/>
<path d="M7811 1244 c0 -11 3 -14 6 -6 3 7 2 16 -1 19 -3 4 -6 -2 -5 -13z"/>
<path d="M5135 440 c-3 -5 -1 -10 4 -10 6 0 11 5 11 10 0 6 -2 10 -4 10 -3 0
-8 -4 -11 -10z"/>
<path d="M6840 420 c-9 -6 -10 -10 -3 -10 6 0 15 5 18 10 8 12 4 12 -15 0z"/>
</g>
</svg>
